<svg xmlns="http://www.w3.org/2000/svg" width="1500" height="920" viewBox="0 0 1500 920">
<style>
text { font-family: -apple-system, BlinkMacSystemFont, 'Segoe UI', sans-serif; fill: #111827; }
.title { font-size: 28px; font-weight: 700; }
.subtitle { font-size: 14px; fill: #4b5563; }
.panel-title { font-size: 18px; font-weight: 700; }
.axis-label { font-size: 11px; fill: #4b5563; }
.axis-title { font-size: 12px; fill: #4b5563; }
.plot-bg { fill: #ffffff; stroke: #d1d5db; }
.grid { stroke: #e5e7eb; stroke-width: 1; }
.axis { stroke: #6b7280; stroke-width: 1; }
.series-line { stroke-width: 2.4; stroke-linejoin: round; stroke-linecap: round; }
.ai-line { stroke: #6b7280; stroke-width: 1.5; stroke-dasharray: 6 6; }
.ai-label { font-size: 12px; fill: #374151; }
.legend-label { font-size: 14px; }
</style>
<rect width="100%" height="100%" fill="#f9fafb"/>
<text x="40" y="48" class="title">Commit line history</text>
<text x="40" y="75" class="subtitle">Generated 2026/05/11 15:39; 104 commits; docs + spec, src, tests; changed lines = added + deleted.</text>
<text x="40" y="98" class="subtitle">Path scope: docs/ + spec/ or specs/, src/, tests/. Historical files outside these paths are excluded.</text>
<line x1="1080" y1="45" x2="1116" y2="45" stroke="#2563eb" class="series-line"/>
<text x="1126" y="50" class="legend-label">docs + spec</text>
<line x1="1080" y1="69" x2="1116" y2="69" stroke="#dc2626" class="series-line"/>
<text x="1126" y="74" class="legend-label">src</text>
<line x1="1080" y1="93" x2="1116" y2="93" stroke="#16a34a" class="series-line"/>
<text x="1126" y="98" class="legend-label">tests</text>
<text x="110" y="142" class="panel-title">Total lines after each commit</text>
<rect x="110" y="160" width="1320" height="300" class="plot-bg"/>
<line x1="110" y1="460.00" x2="1430" y2="460.00" class="grid"/>
<text x="100" y="464.00" class="axis-label" text-anchor="end">0</text>
<line x1="110" y1="400.00" x2="1430" y2="400.00" class="grid"/>
<text x="100" y="404.00" class="axis-label" text-anchor="end">20,000</text>
<line x1="110" y1="340.00" x2="1430" y2="340.00" class="grid"/>
<text x="100" y="344.00" class="axis-label" text-anchor="end">40,000</text>
<line x1="110" y1="280.00" x2="1430" y2="280.00" class="grid"/>
<text x="100" y="284.00" class="axis-label" text-anchor="end">60,000</text>
<line x1="110" y1="220.00" x2="1430" y2="220.00" class="grid"/>
<text x="100" y="224.00" class="axis-label" text-anchor="end">80,000</text>
<line x1="110" y1="160.00" x2="1430" y2="160.00" class="grid"/>
<text x="100" y="164.00" class="axis-label" text-anchor="end">100,000</text>
<line x1="110.00" y1="460" x2="110.00" y2="466" class="axis"/>
<text x="110.00" y="482" class="axis-label" text-anchor="middle">1</text>
<line x1="238.16" y1="460" x2="238.16" y2="466" class="axis"/>
<text x="238.16" y="482" class="axis-label" text-anchor="middle">11</text>
<line x1="366.31" y1="460" x2="366.31" y2="466" class="axis"/>
<text x="366.31" y="482" class="axis-label" text-anchor="middle">21</text>
<line x1="494.47" y1="460" x2="494.47" y2="466" class="axis"/>
<text x="494.47" y="482" class="axis-label" text-anchor="middle">31</text>
<line x1="622.62" y1="460" x2="622.62" y2="466" class="axis"/>
<text x="622.62" y="482" class="axis-label" text-anchor="middle">41</text>
<line x1="750.78" y1="460" x2="750.78" y2="466" class="axis"/>
<text x="750.78" y="482" class="axis-label" text-anchor="middle">51</text>
<line x1="878.93" y1="460" x2="878.93" y2="466" class="axis"/>
<text x="878.93" y="482" class="axis-label" text-anchor="middle">61</text>
<line x1="1007.09" y1="460" x2="1007.09" y2="466" class="axis"/>
<text x="1007.09" y="482" class="axis-label" text-anchor="middle">71</text>
<line x1="1135.24" y1="460" x2="1135.24" y2="466" class="axis"/>
<text x="1135.24" y="482" class="axis-label" text-anchor="middle">81</text>
<line x1="1263.40" y1="460" x2="1263.40" y2="466" class="axis"/>
<text x="1263.40" y="482" class="axis-label" text-anchor="middle">91</text>
<line x1="1391.55" y1="460" x2="1391.55" y2="466" class="axis"/>
<text x="1391.55" y="482" class="axis-label" text-anchor="middle">101</text>
<line x1="1430.00" y1="460" x2="1430.00" y2="466" class="axis"/>
<text x="1430.00" y="482" class="axis-label" text-anchor="middle">104</text>
<line x1="930.19" y1="160" x2="930.19" y2="460" class="ai-line"/>
<text x="936.19" y="174" class="ai-label">AI start 2026/03/01</text>
<polyline points="110.00,460.00 122.82,460.00 135.63,460.00 148.45,460.00 161.26,460.00 174.08,460.00 186.89,460.00 199.71,460.00 212.52,460.00 225.34,460.00 238.16,460.00 250.97,460.00 263.79,460.00 276.60,460.00 289.42,460.00 302.23,460.00 315.05,460.00 327.86,460.00 340.68,460.00 353.50,460.00 366.31,460.00 379.13,460.00 391.94,460.00 404.76,460.00 417.57,460.00 430.39,460.00 443.20,460.00 456.02,460.00 468.83,460.00 481.65,460.00 494.47,460.00 507.28,460.00 520.10,460.00 532.91,460.00 545.73,460.00 558.54,460.00 571.36,460.00 584.17,460.00 596.99,460.00 609.81,460.00 622.62,460.00 635.44,460.00 648.25,460.00 661.07,460.00 673.88,460.00 686.70,458.73 699.51,458.73 712.33,458.73 725.15,458.73 737.96,458.73 750.78,458.73 763.59,458.73 776.41,458.73 789.22,458.73 802.04,458.73 814.85,458.73 827.67,458.73 840.49,458.73 853.30,458.73 866.12,458.73 878.93,458.73 891.75,458.73 904.56,458.73 917.38,458.73 930.19,458.73 943.01,457.35 955.83,455.00 968.64,452.73 981.46,452.73 994.27,452.73 1007.09,451.23 1019.90,450.55 1032.72,450.55 1045.53,450.55 1058.35,442.39 1071.17,439.69 1083.98,439.66 1096.80,438.76 1109.61,433.24 1122.43,437.50 1135.24,434.17 1148.06,433.56 1160.87,433.52 1173.69,430.85 1186.50,430.85 1199.32,430.85 1212.14,429.80 1224.95,429.62 1237.77,425.09 1250.58,423.84 1263.40,422.67 1276.21,421.94 1289.03,420.74 1301.84,419.94 1314.66,415.49 1327.48,414.94 1340.29,412.49 1353.11,410.67 1365.92,410.67 1378.74,410.59 1391.55,409.72 1404.37,408.30 1417.18,408.06 1430.00,407.80" fill="none" stroke="#2563eb" class="series-line"/>
<polyline points="110.00,460.00 122.82,460.00 135.63,460.00 148.45,460.00 161.26,460.00 174.08,460.00 186.89,460.00 199.71,460.00 212.52,460.00 225.34,460.00 238.16,460.00 250.97,460.00 263.79,460.00 276.60,460.00 289.42,460.00 302.23,460.00 315.05,460.00 327.86,460.00 340.68,460.00 353.50,460.00 366.31,460.00 379.13,460.00 391.94,460.00 404.76,460.00 417.57,460.00 430.39,460.00 443.20,460.00 456.02,460.00 468.83,460.00 481.65,460.00 494.47,460.00 507.28,460.00 520.10,460.00 532.91,460.00 545.73,460.00 558.54,460.00 571.36,460.00 584.17,460.00 596.99,460.00 609.81,460.00 622.62,460.00 635.44,460.00 648.25,460.00 661.07,226.67 673.88,226.61 686.70,226.61 699.51,451.70 712.33,451.32 725.15,451.32 737.96,451.32 750.78,451.16 763.59,450.98 776.41,450.49 789.22,450.34 802.04,450.33 814.85,449.89 827.67,449.67 840.49,449.28 853.30,450.08 866.12,450.08 878.93,449.68 891.75,449.67 904.56,449.24 917.38,449.05 930.19,449.04 943.01,448.01 955.83,448.03 968.64,448.03 981.46,447.89 994.27,447.35 1007.09,447.35 1019.90,446.77 1032.72,446.60 1045.53,446.60 1058.35,446.60 1071.17,446.60 1083.98,446.60 1096.80,446.60 1109.61,446.60 1122.43,446.60 1135.24,445.94 1148.06,445.94 1160.87,445.78 1173.69,444.68 1186.50,444.68 1199.32,443.50 1212.14,440.73 1224.95,440.19 1237.77,440.19 1250.58,434.32 1263.40,428.45 1276.21,428.45 1289.03,428.43 1301.84,428.30 1314.66,426.77 1327.48,426.33 1340.29,421.76 1353.11,420.39 1365.92,420.39 1378.74,415.84 1391.55,415.84 1404.37,415.84 1417.18,415.61 1430.00,415.61" fill="none" stroke="#dc2626" class="series-line"/>
<polyline points="110.00,460.00 122.82,460.00 135.63,460.00 148.45,460.00 161.26,460.00 174.08,460.00 186.89,460.00 199.71,460.00 212.52,460.00 225.34,460.00 238.16,460.00 250.97,460.00 263.79,460.00 276.60,460.00 289.42,460.00 302.23,460.00 315.05,460.00 327.86,460.00 340.68,460.00 353.50,460.00 366.31,460.00 379.13,460.00 391.94,460.00 404.76,460.00 417.57,460.00 430.39,460.00 443.20,460.00 456.02,460.00 468.83,460.00 481.65,460.00 494.47,460.00 507.28,460.00 520.10,460.00 532.91,460.00 545.73,460.00 558.54,460.00 571.36,460.00 584.17,460.00 596.99,460.00 609.81,460.00 622.62,460.00 635.44,460.00 648.25,460.00 661.07,460.00 673.88,460.00 686.70,460.00 699.51,460.00 712.33,460.00 725.15,460.00 737.96,459.42 750.78,459.42 763.59,459.42 776.41,459.42 789.22,459.20 802.04,459.20 814.85,459.20 827.67,459.20 840.49,459.20 853.30,459.34 866.12,459.35 878.93,459.35 891.75,459.35 904.56,459.35 917.38,459.35 930.19,459.35 943.01,459.12 955.83,459.07 968.64,459.07 981.46,459.05 994.27,459.04 1007.09,459.04 1019.90,458.50 1032.72,458.50 1045.53,458.50 1058.35,458.50 1071.17,458.50 1083.98,458.50 1096.80,458.50 1109.61,458.50 1122.43,458.50 1135.24,457.94 1148.06,457.94 1160.87,457.36 1173.69,456.62 1186.50,455.09 1199.32,455.09 1212.14,455.02 1224.95,454.57 1237.77,454.57 1250.58,454.43 1263.40,454.31 1276.21,454.31 1289.03,454.21 1301.84,454.19 1314.66,453.21 1327.48,452.38 1340.29,451.31 1353.11,451.31 1365.92,451.21 1378.74,451.21 1391.55,451.21 1404.37,451.21 1417.18,450.60 1430.00,450.60" fill="none" stroke="#16a34a" class="series-line"/>
<text x="1430" y="502" class="axis-title" text-anchor="end">commit index</text>
<text x="110" y="158" class="axis-title">total lines</text>
<text x="110" y="542" class="panel-title">Changed lines in each commit</text>
<rect x="110" y="560" width="1320" height="300" class="plot-bg"/>
<line x1="110" y1="860.00" x2="1430" y2="860.00" class="grid"/>
<text x="100" y="864.00" class="axis-label" text-anchor="end">0</text>
<line x1="110" y1="800.00" x2="1430" y2="800.00" class="grid"/>
<text x="100" y="804.00" class="axis-label" text-anchor="end">20,000</text>
<line x1="110" y1="740.00" x2="1430" y2="740.00" class="grid"/>
<text x="100" y="744.00" class="axis-label" text-anchor="end">40,000</text>
<line x1="110" y1="680.00" x2="1430" y2="680.00" class="grid"/>
<text x="100" y="684.00" class="axis-label" text-anchor="end">60,000</text>
<line x1="110" y1="620.00" x2="1430" y2="620.00" class="grid"/>
<text x="100" y="624.00" class="axis-label" text-anchor="end">80,000</text>
<line x1="110" y1="560.00" x2="1430" y2="560.00" class="grid"/>
<text x="100" y="564.00" class="axis-label" text-anchor="end">100,000</text>
<line x1="110.00" y1="860" x2="110.00" y2="866" class="axis"/>
<text x="110.00" y="882" class="axis-label" text-anchor="middle">1</text>
<line x1="238.16" y1="860" x2="238.16" y2="866" class="axis"/>
<text x="238.16" y="882" class="axis-label" text-anchor="middle">11</text>
<line x1="366.31" y1="860" x2="366.31" y2="866" class="axis"/>
<text x="366.31" y="882" class="axis-label" text-anchor="middle">21</text>
<line x1="494.47" y1="860" x2="494.47" y2="866" class="axis"/>
<text x="494.47" y="882" class="axis-label" text-anchor="middle">31</text>
<line x1="622.62" y1="860" x2="622.62" y2="866" class="axis"/>
<text x="622.62" y="882" class="axis-label" text-anchor="middle">41</text>
<line x1="750.78" y1="860" x2="750.78" y2="866" class="axis"/>
<text x="750.78" y="882" class="axis-label" text-anchor="middle">51</text>
<line x1="878.93" y1="860" x2="878.93" y2="866" class="axis"/>
<text x="878.93" y="882" class="axis-label" text-anchor="middle">61</text>
<line x1="1007.09" y1="860" x2="1007.09" y2="866" class="axis"/>
<text x="1007.09" y="882" class="axis-label" text-anchor="middle">71</text>
<line x1="1135.24" y1="860" x2="1135.24" y2="866" class="axis"/>
<text x="1135.24" y="882" class="axis-label" text-anchor="middle">81</text>
<line x1="1263.40" y1="860" x2="1263.40" y2="866" class="axis"/>
<text x="1263.40" y="882" class="axis-label" text-anchor="middle">91</text>
<line x1="1391.55" y1="860" x2="1391.55" y2="866" class="axis"/>
<text x="1391.55" y="882" class="axis-label" text-anchor="middle">101</text>
<line x1="1430.00" y1="860" x2="1430.00" y2="866" class="axis"/>
<text x="1430.00" y="882" class="axis-label" text-anchor="middle">104</text>
<line x1="930.19" y1="560" x2="930.19" y2="860" class="ai-line"/>
<text x="936.19" y="574" class="ai-label">AI start 2026/03/01</text>
<polyline points="110.00,860.00 122.82,860.00 135.63,860.00 148.45,860.00 161.26,860.00 174.08,860.00 186.89,860.00 199.71,860.00 212.52,860.00 225.34,860.00 238.16,860.00 250.97,860.00 263.79,860.00 276.60,860.00 289.42,860.00 302.23,860.00 315.05,860.00 327.86,860.00 340.68,860.00 353.50,860.00 366.31,860.00 379.13,860.00 391.94,860.00 404.76,860.00 417.57,860.00 430.39,860.00 443.20,860.00 456.02,860.00 468.83,860.00 481.65,860.00 494.47,860.00 507.28,860.00 520.10,860.00 532.91,860.00 545.73,860.00 558.54,860.00 571.36,860.00 584.17,860.00 596.99,860.00 609.81,860.00 622.62,860.00 635.44,860.00 648.25,860.00 661.07,860.00 673.88,860.00 686.70,858.73 699.51,860.00 712.33,860.00 725.15,860.00 737.96,860.00 750.78,860.00 763.59,860.00 776.41,860.00 789.22,860.00 802.04,860.00 814.85,860.00 827.67,860.00 840.49,860.00 853.30,860.00 866.12,860.00 878.93,860.00 891.75,860.00 904.56,860.00 917.38,860.00 930.19,860.00 943.01,858.62 955.83,856.95 968.64,857.64 981.46,860.00 994.27,860.00 1007.09,858.49 1019.90,859.32 1032.72,860.00 1045.53,860.00 1058.35,851.84 1071.17,857.28 1083.98,859.97 1096.80,859.10 1109.61,854.48 1122.43,853.23 1135.24,856.64 1148.06,859.25 1160.87,859.96 1173.69,857.01 1186.50,860.00 1199.32,860.00 1212.14,858.92 1224.95,859.81 1237.77,855.47 1250.58,858.72 1263.40,858.82 1276.21,859.26 1289.03,858.75 1301.84,858.63 1314.66,855.50 1327.48,859.37 1340.29,857.55 1353.11,858.18 1365.92,860.00 1378.74,859.85 1391.55,859.13 1404.37,858.58 1417.18,859.53 1430.00,859.66" fill="none" stroke="#2563eb" class="series-line"/>
<polyline points="110.00,860.00 122.82,860.00 135.63,860.00 148.45,860.00 161.26,860.00 174.08,860.00 186.89,860.00 199.71,860.00 212.52,860.00 225.34,860.00 238.16,860.00 250.97,860.00 263.79,860.00 276.60,860.00 289.42,860.00 302.23,860.00 315.05,860.00 327.86,860.00 340.68,860.00 353.50,860.00 366.31,860.00 379.13,860.00 391.94,860.00 404.76,860.00 417.57,860.00 430.39,860.00 443.20,860.00 456.02,860.00 468.83,860.00 481.65,860.00 494.47,860.00 507.28,860.00 520.10,860.00 532.91,860.00 545.73,860.00 558.54,860.00 571.36,860.00 584.17,860.00 596.99,860.00 609.81,860.00 622.62,860.00 635.44,860.00 648.25,860.00 661.07,859.90 673.88,859.93 686.70,860.00 699.51,634.90 712.33,858.90 725.15,860.00 737.96,860.00 750.78,859.67 763.59,859.47 776.41,858.95 789.22,859.81 802.04,859.92 814.85,859.32 827.67,859.74 840.49,859.47 853.30,859.12 866.12,860.00 878.93,859.26 891.75,859.92 904.56,859.38 917.38,859.79 930.19,859.98 943.01,858.05 955.83,858.30 968.64,860.00 981.46,859.69 994.27,859.29 1007.09,860.00 1019.90,858.55 1032.72,859.26 1045.53,859.99 1058.35,860.00 1071.17,860.00 1083.98,860.00 1096.80,860.00 1109.61,860.00 1122.43,860.00 1135.24,859.05 1148.06,860.00 1160.87,859.78 1173.69,858.90 1186.50,860.00 1199.32,858.70 1212.14,856.92 1224.95,859.20 1237.77,860.00 1250.58,854.08 1263.40,854.12 1276.21,860.00 1289.03,859.84 1301.84,859.52 1314.66,858.48 1327.48,859.51 1340.29,855.35 1353.11,858.63 1365.92,860.00 1378.74,855.45 1391.55,860.00 1404.37,860.00 1417.18,859.45 1430.00,860.00" fill="none" stroke="#dc2626" class="series-line"/>
<polyline points="110.00,860.00 122.82,860.00 135.63,860.00 148.45,860.00 161.26,860.00 174.08,860.00 186.89,860.00 199.71,860.00 212.52,860.00 225.34,860.00 238.16,860.00 250.97,860.00 263.79,860.00 276.60,860.00 289.42,860.00 302.23,860.00 315.05,860.00 327.86,860.00 340.68,860.00 353.50,860.00 366.31,860.00 379.13,860.00 391.94,860.00 404.76,860.00 417.57,860.00 430.39,860.00 443.20,860.00 456.02,860.00 468.83,860.00 481.65,860.00 494.47,860.00 507.28,860.00 520.10,860.00 532.91,860.00 545.73,860.00 558.54,860.00 571.36,860.00 584.17,860.00 596.99,860.00 609.81,860.00 622.62,860.00 635.44,860.00 648.25,860.00 661.07,860.00 673.88,860.00 686.70,860.00 699.51,860.00 712.33,860.00 725.15,860.00 737.96,859.42 750.78,860.00 763.59,860.00 776.41,860.00 789.22,859.60 802.04,860.00 814.85,860.00 827.67,860.00 840.49,860.00 853.30,859.73 866.12,859.99 878.93,860.00 891.75,860.00 904.56,860.00 917.38,860.00 930.19,860.00 943.01,859.76 955.83,859.85 968.64,860.00 981.46,859.91 994.27,859.96 1007.09,860.00 1019.90,859.46 1032.72,860.00 1045.53,860.00 1058.35,860.00 1071.17,860.00 1083.98,860.00 1096.80,860.00 1109.61,860.00 1122.43,860.00 1135.24,859.45 1148.06,860.00 1160.87,859.38 1173.69,859.26 1186.50,858.44 1199.32,860.00 1212.14,859.81 1224.95,859.39 1237.77,860.00 1250.58,859.86 1263.40,859.88 1276.21,860.00 1289.03,859.78 1301.84,859.99 1314.66,859.01 1327.48,859.07 1340.29,858.92 1353.11,860.00 1365.92,859.91 1378.74,860.00 1391.55,860.00 1404.37,860.00 1417.18,859.38 1430.00,860.00" fill="none" stroke="#16a34a" class="series-line"/>
<text x="1430" y="902" class="axis-title" text-anchor="end">commit index</text>
<text x="110" y="558" class="axis-title">changed lines</text>
</svg>