<svg xmlns="http://www.w3.org/2000/svg" width="1500" height="920" viewBox="0 0 1500 920">
<style>
text { font-family: -apple-system, BlinkMacSystemFont, 'Segoe UI', sans-serif; fill: #111827; }
.title { font-size: 28px; font-weight: 700; }
.subtitle { font-size: 14px; fill: #4b5563; }
.panel-title { font-size: 18px; font-weight: 700; }
.axis-label { font-size: 11px; fill: #4b5563; }
.axis-title { font-size: 12px; fill: #4b5563; }
.plot-bg { fill: #ffffff; stroke: #d1d5db; }
.grid { stroke: #e5e7eb; stroke-width: 1; }
.axis { stroke: #6b7280; stroke-width: 1; }
.series-line { stroke-width: 2.4; stroke-linejoin: round; stroke-linecap: round; }
.ai-line { stroke: #6b7280; stroke-width: 1.5; stroke-dasharray: 6 6; }
.ai-label { font-size: 12px; fill: #374151; }
.legend-label { font-size: 14px; }
</style>
<rect width="100%" height="100%" fill="#f9fafb"/>
<text x="40" y="48" class="title">Commit line history</text>
<text x="40" y="75" class="subtitle">Generated 2026/05/11 17:59; 40 commits from 2026-03-23 to 2026-04-29; docs + spec, src, tests; changed lines = added + deleted.</text>
<text x="40" y="98" class="subtitle">Path scope: docs/ + spec/ or specs/, src/, tests/. Historical files outside these paths are excluded.</text>
<line x1="1080" y1="45" x2="1116" y2="45" stroke="#2563eb" class="series-line"/>
<text x="1126" y="50" class="legend-label">docs + spec</text>
<line x1="1080" y1="69" x2="1116" y2="69" stroke="#dc2626" class="series-line"/>
<text x="1126" y="74" class="legend-label">src</text>
<line x1="1080" y1="93" x2="1116" y2="93" stroke="#16a34a" class="series-line"/>
<text x="1126" y="98" class="legend-label">tests</text>
<text x="110" y="142" class="panel-title">Total lines after each commit</text>
<rect x="110" y="160" width="1320" height="300" class="plot-bg"/>
<line x1="110" y1="460.00" x2="1430" y2="460.00" class="grid"/>
<text x="100" y="464.00" class="axis-label" text-anchor="end">0</text>
<line x1="110" y1="400.00" x2="1430" y2="400.00" class="grid"/>
<text x="100" y="404.00" class="axis-label" text-anchor="end">4,000</text>
<line x1="110" y1="340.00" x2="1430" y2="340.00" class="grid"/>
<text x="100" y="344.00" class="axis-label" text-anchor="end">8,000</text>
<line x1="110" y1="280.00" x2="1430" y2="280.00" class="grid"/>
<text x="100" y="284.00" class="axis-label" text-anchor="end">12,000</text>
<line x1="110" y1="220.00" x2="1430" y2="220.00" class="grid"/>
<text x="100" y="224.00" class="axis-label" text-anchor="end">16,000</text>
<line x1="110" y1="160.00" x2="1430" y2="160.00" class="grid"/>
<text x="100" y="164.00" class="axis-label" text-anchor="end">20,000</text>
<line x1="110.00" y1="460" x2="110.00" y2="466" class="axis"/>
<text x="110.00" y="482" class="axis-label" text-anchor="middle">65</text>
<line x1="448.46" y1="460" x2="448.46" y2="466" class="axis"/>
<text x="448.46" y="482" class="axis-label" text-anchor="middle">75</text>
<line x1="786.92" y1="460" x2="786.92" y2="466" class="axis"/>
<text x="786.92" y="482" class="axis-label" text-anchor="middle">85</text>
<line x1="1125.38" y1="460" x2="1125.38" y2="466" class="axis"/>
<text x="1125.38" y="482" class="axis-label" text-anchor="middle">95</text>
<line x1="1430.00" y1="460" x2="1430.00" y2="466" class="axis"/>
<text x="1430.00" y="482" class="axis-label" text-anchor="middle">104</text>
<line x1="110.00" y1="160" x2="110.00" y2="460" class="ai-line"/>
<text x="116.00" y="174" class="ai-label">AI start 2026/03/01</text>
<polyline points="110.00,453.65 143.85,446.77 177.69,435.01 211.54,423.67 245.38,423.67 279.23,423.67 313.08,416.12 346.92,412.74 380.77,412.74 414.62,412.74 448.46,371.94 482.31,358.45 516.15,358.28 550.00,353.79 583.85,326.20 617.69,347.51 651.54,330.87 685.38,327.82 719.23,327.60 753.08,314.23 786.92,314.23 820.77,314.23 854.62,309.00 888.46,308.10 922.31,285.43 956.15,279.19 990.00,273.37 1023.85,269.68 1057.69,263.69 1091.54,259.68 1125.38,237.44 1159.23,234.70 1193.08,222.46 1226.92,213.37 1260.77,213.37 1294.62,212.94 1328.46,208.59 1362.31,201.48 1396.15,200.32 1430.00,199.00" fill="none" stroke="#2563eb" class="series-line"/>
<polyline points="110.00,405.22 143.85,400.05 177.69,400.13 211.54,400.13 245.38,399.44 279.23,396.76 313.08,396.76 346.92,393.85 380.77,392.98 414.62,392.98 448.46,392.98 482.31,392.98 516.15,392.98 550.00,392.98 583.85,392.98 617.69,392.98 651.54,389.69 685.38,389.69 719.23,388.88 753.08,383.38 786.92,383.38 820.77,377.50 854.62,363.65 888.46,360.97 922.31,360.97 956.15,331.60 990.00,302.27 1023.85,302.27 1057.69,302.12 1091.54,301.48 1125.38,293.86 1159.23,291.67 1193.08,268.81 1226.92,261.97 1260.77,261.95 1294.62,239.20 1328.46,239.20 1362.31,239.20 1396.15,238.04 1430.00,238.04" fill="none" stroke="#dc2626" class="series-line"/>
<polyline points="110.00,456.73 143.85,455.59 177.69,455.35 211.54,455.35 245.38,455.26 279.23,455.19 313.08,455.19 346.92,452.49 380.77,452.49 414.62,452.49 448.46,452.49 482.31,452.49 516.15,452.49 550.00,452.49 583.85,452.49 617.69,452.49 651.54,449.73 685.38,449.73 719.23,446.81 753.08,443.10 786.92,435.46 820.77,435.46 854.62,435.12 888.46,432.85 922.31,432.85 956.15,432.13 990.00,431.55 1023.85,431.55 1057.69,431.04 1091.54,430.98 1125.38,426.04 1159.23,421.88 1193.08,416.53 1226.92,416.53 1260.77,416.06 1294.62,416.06 1328.46,416.06 1362.31,416.06 1396.15,412.98 1430.00,412.98" fill="none" stroke="#16a34a" class="series-line"/>
<text x="1430" y="502" class="axis-title" text-anchor="end">commit index</text>
<text x="110" y="158" class="axis-title">total lines</text>
<text x="110" y="542" class="panel-title">Changed lines in each commit</text>
<rect x="110" y="560" width="1320" height="300" class="plot-bg"/>
<line x1="110" y1="860.00" x2="1430" y2="860.00" class="grid"/>
<text x="100" y="864.00" class="axis-label" text-anchor="end">0</text>
<line x1="110" y1="800.00" x2="1430" y2="800.00" class="grid"/>
<text x="100" y="804.00" class="axis-label" text-anchor="end">1,000</text>
<line x1="110" y1="740.00" x2="1430" y2="740.00" class="grid"/>
<text x="100" y="744.00" class="axis-label" text-anchor="end">2,000</text>
<line x1="110" y1="680.00" x2="1430" y2="680.00" class="grid"/>
<text x="100" y="684.00" class="axis-label" text-anchor="end">3,000</text>
<line x1="110" y1="620.00" x2="1430" y2="620.00" class="grid"/>
<text x="100" y="624.00" class="axis-label" text-anchor="end">4,000</text>
<line x1="110" y1="560.00" x2="1430" y2="560.00" class="grid"/>
<text x="100" y="564.00" class="axis-label" text-anchor="end">5,000</text>
<line x1="110.00" y1="860" x2="110.00" y2="866" class="axis"/>
<text x="110.00" y="882" class="axis-label" text-anchor="middle">65</text>
<line x1="448.46" y1="860" x2="448.46" y2="866" class="axis"/>
<text x="448.46" y="882" class="axis-label" text-anchor="middle">75</text>
<line x1="786.92" y1="860" x2="786.92" y2="866" class="axis"/>
<text x="786.92" y="882" class="axis-label" text-anchor="middle">85</text>
<line x1="1125.38" y1="860" x2="1125.38" y2="866" class="axis"/>
<text x="1125.38" y="882" class="axis-label" text-anchor="middle">95</text>
<line x1="1430.00" y1="860" x2="1430.00" y2="866" class="axis"/>
<text x="1430.00" y="882" class="axis-label" text-anchor="middle">104</text>
<line x1="110.00" y1="560" x2="110.00" y2="860" class="ai-line"/>
<text x="116.00" y="574" class="ai-label">AI start 2026/03/01</text>
<polyline points="110.00,860.00 143.85,832.46 177.69,799.04 211.54,812.72 245.38,860.00 279.23,860.00 313.08,829.82 346.92,846.44 380.77,860.00 414.62,860.00 448.46,696.80 482.31,805.70 516.15,859.34 550.00,842.00 583.85,749.66 617.69,724.58 651.54,792.80 685.38,844.94 719.23,859.10 753.08,800.18 786.92,860.00 820.77,860.00 854.62,838.34 888.46,856.16 922.31,769.34 956.15,834.32 990.00,836.48 1023.85,845.24 1057.69,834.98 1091.54,832.52 1125.38,770.00 1159.23,847.34 1193.08,810.92 1226.92,823.52 1260.77,860.00 1294.62,856.94 1328.46,842.60 1362.31,831.56 1396.15,850.58 1430.00,853.28" fill="none" stroke="#2563eb" class="series-line"/>
<polyline points="110.00,859.58 143.85,821.06 177.69,826.04 211.54,860.00 245.38,853.76 279.23,845.78 313.08,860.00 346.92,831.08 380.77,845.24 414.62,859.88 448.46,860.00 482.31,860.00 516.15,860.00 550.00,860.00 583.85,860.00 617.69,860.00 651.54,840.98 685.38,860.00 719.23,855.68 753.08,837.98 786.92,860.00 820.77,834.08 854.62,798.50 888.46,843.98 922.31,860.00 956.15,741.68 990.00,742.34 1023.85,860.00 1057.69,856.76 1091.54,850.34 1125.38,829.52 1159.23,850.28 1193.08,767.00 1226.92,832.64 1260.77,859.94 1294.62,768.98 1328.46,860.00 1362.31,860.00 1396.15,848.90 1430.00,860.00" fill="none" stroke="#dc2626" class="series-line"/>
<polyline points="110.00,860.00 143.85,855.20 177.69,857.00 211.54,860.00 245.38,858.20 279.23,859.10 313.08,860.00 346.92,849.20 380.77,860.00 414.62,860.00 448.46,860.00 482.31,860.00 516.15,860.00 550.00,860.00 583.85,860.00 617.69,860.00 651.54,848.96 685.38,860.00 719.23,847.64 753.08,845.12 786.92,828.74 820.77,860.00 854.62,856.22 888.46,847.82 922.31,860.00 956.15,857.12 990.00,857.66 1023.85,860.00 1057.69,855.56 1091.54,859.76 1125.38,840.26 1159.23,841.34 1193.08,838.34 1226.92,860.00 1260.77,858.14 1294.62,860.00 1328.46,860.00 1362.31,860.00 1396.15,847.64 1430.00,860.00" fill="none" stroke="#16a34a" class="series-line"/>
<text x="1430" y="902" class="axis-title" text-anchor="end">commit index</text>
<text x="110" y="558" class="axis-title">changed lines</text>
</svg>